name Walk1.mot
datacolumns 19
datarows 20
range 1.74200000 1.76100000
endheader

                time	   L_ground_force_vx	   L_ground_force_vy	   L_ground_force_vz	   L_ground_force_px	   L_ground_force_py	   L_ground_force_pz	   R_ground_force_vx	   R_ground_force_vy	   R_ground_force_vz	   R_ground_force_px	   R_ground_force_py	   R_ground_force_pz	   L_ground_torque_x	   L_ground_torque_y	   L_ground_torque_z	   R_ground_torque_x	   R_ground_torque_y	   R_ground_torque_z	
          1.74200000	         10.64759558	        986.14438199	         61.08618664	         -0.25945273	          0.00000000	         -0.03812093	          0.00268221	         -0.00672221	         -0.00065489	          0.00002041	          0.00000000	          0.00000942	          0.00000000	         -1.09408818	          0.00000000	          0.00000000	         -0.00041577	          0.00000000	
          1.74300000	         10.92534653	        987.10172893	         61.28872651	         -0.25906018	          0.00000000	         -0.03816435	          0.00242599	         -0.00227647	         -0.00019268	          0.00002434	          0.00000000	          0.00001121	          0.00000000	         -1.08961011	          0.00000000	          0.00000000	         -0.00039045	          0.00000000	
          1.74400000	         11.20952369	        988.04733740	         61.49099800	         -0.25866911	          0.00000000	         -0.03820689	          0.00213594	          0.00259180	          0.00031326	          0.00002853	          0.00000000	          0.00001312	          0.00000000	         -1.08532229	          0.00000000	          0.00000000	         -0.00036117	          0.00000000	
          1.74500000	         11.50032621	        988.98111368	         61.69301977	         -0.25827956	          0.00000000	         -0.03824856	          0.00181012	          0.00790174	          0.00086493	          0.00003300	          0.00000000	          0.00001515	          0.00000000	         -1.08124524	          0.00000000	          0.00000000	         -0.00032767	          0.00000000	
          1.74600000	         11.79794202	        989.90298133	         61.89480457	         -0.25789153	          0.00000000	         -0.03828934	          0.00144655	          0.01367248	          0.00146429	          0.00003774	          0.00000000	          0.00001731	          0.00000000	         -1.07739923	          0.00000000	          0.00000000	         -0.00028971	          0.00000000	
          1.74700000	         12.10254712	        990.81288078	         62.09635900	         -0.25750504	          0.00000000	         -0.03832923	          0.00104322	          0.01992299	          0.00211330	          0.00004277	          0.00000000	          0.00001960	          0.00000000	         -1.07380397	          0.00000000	          0.00000000	         -0.00024702	          0.00000000	
          1.74800000	         12.41430493	        991.71076866	         62.29768384	         -0.25712010	          0.00000000	         -0.03836823	          0.00059810	          0.02667206	          0.00281389	          0.00004810	          0.00000000	          0.00002201	          0.00000000	         -1.07047851	          0.00000000	          0.00000000	         -0.00019935	          0.00000000	
          1.74900000	         12.73336557	        992.59661747	         62.49877444	         -0.25673671	          0.00000000	         -0.03840631	          0.00010914	          0.03393813	          0.00356797	          0.00005371	          0.00000000	          0.00002457	          0.00000000	         -1.06744111	          0.00000000	          0.00000000	         -0.00014642	          0.00000000	
          1.75000000	         13.05986525	        993.47041571	         62.69962128	         -0.25635488	          0.00000000	         -0.03844349	         -0.00042570	          0.04173924	          0.00437737	          0.00005963	          0.00000000	          0.00002725	          0.00000000	         -1.06470917	          0.00000000	          0.00000000	         -0.00008798	          0.00000000	
          1.75100000	         13.39392584	        994.33216829	         62.90021036	         -0.25597460	          0.00000000	         -0.03847975	         -0.00100848	          0.05009289	          0.00524392	          0.00006585	          0.00000000	          0.00003008	          0.00000000	         -1.06229934	          0.00000000	          0.00000000	         -0.00002373	          0.00000000	
          1.75200000	         13.73565480	        995.18189692	         63.10052345	         -0.25559588	          0.00000000	         -0.03851509	         -0.00164125	          0.05901592	          0.00616933	          0.00007238	          0.00000000	          0.00003304	          0.00000000	         -1.06022757	          0.00000000	          0.00000000	          0.00004658	          0.00000000	
          1.75300000	         14.08514544	        996.01964022	         63.30053844	         -0.25521873	          0.00000000	         -0.03854951	         -0.00232605	          0.06852440	          0.00715526	          0.00007921	          0.00000000	          0.00003614	          0.00000000	         -1.05850924	          0.00000000	          0.00000000	          0.00012323	          0.00000000	
          1.75400000	         14.44247756	        996.84545344	         63.50022969	         -0.25484312	          0.00000000	         -0.03858300	         -0.00306487	          0.07863345	          0.00820325	          0.00008635	          0.00000000	          0.00003938	          0.00000000	         -1.05715908	          0.00000000	          0.00000000	          0.00020650	          0.00000000	
          1.75500000	         14.80771817	        997.65940776	         63.69956854	         -0.25446907	          0.00000000	         -0.03861558	         -0.00385969	          0.08935713	          0.00931475	          0.00009380	          0.00000000	          0.00004276	          0.00000000	         -1.05619105	          0.00000000	          0.00000000	          0.00029665	          0.00000000	
          1.75600000	         15.18092219	        998.46158974	         63.89852394	         -0.25409657	          0.00000000	         -0.03864724	         -0.00471243	          0.10070828	          0.01049107	          0.00010155	          0.00000000	          0.00004628	          0.00000000	         -1.05561814	          0.00000000	          0.00000000	          0.00039395	          0.00000000	
          1.75700000	         15.56213282	        999.25210140	         64.09706319	         -0.25372560	          0.00000000	         -0.03867798	         -0.00562494	          0.11269832	          0.01173337	          0.00010961	          0.00000000	          0.00004993	          0.00000000	         -1.05545226	          0.00000000	          0.00000000	          0.00049867	          0.00000000	
          1.75800000	         15.95138162	       1000.03106103	         64.29515265	         -0.25335614	          0.00000000	         -0.03870781	         -0.00659903	          0.12533710	          0.01304265	          0.00011796	          0.00000000	          0.00005372	          0.00000000	         -1.05570410	          0.00000000	          0.00000000	          0.00061106	          0.00000000	
          1.75900000	         16.34868847	       1000.79860472	         64.49275856	         -0.25298820	          0.00000000	         -0.03873675	         -0.00763637	          0.13863270	          0.01441973	          0.00012660	          0.00000000	          0.00005763	          0.00000000	         -1.05638309	          0.00000000	          0.00000000	          0.00073137	          0.00000000	
          1.76000000	         16.75406154	       1001.55488813	         64.68984765	         -0.25262173	          0.00000000	         -0.03876479	         -0.00873858	          0.15259126	          0.01586523	          0.00013552	          0.00000000	          0.00006168	          0.00000000	         -1.05749734	          0.00000000	          0.00000000	          0.00085984	          0.00000000	
          1.76100000	         17.16749727	       1002.30008825	         64.88638787	         -0.25225674	          0.00000000	         -0.03879194	         -0.00990711	          0.16721674	          0.01737952	          0.00014471	          0.00000000	          0.00006584	          0.00000000	         -1.05905351	          0.00000000	          0.00000000	          0.00099670	          0.00000000	
